HIERARCHY
ROOT Hips
{
	OFFSET 0.00000 0.00000 0.00000
	CHANNELS 6 Xposition Yposition Zposition Zrotation Yrotation Xrotation 
	JOINT LHipJoint
	{
		OFFSET 0 0 0
		CHANNELS 3 Zrotation Yrotation Xrotation
		JOINT LeftHip
		{
			OFFSET 1.82298 -1.58346 0.87084
			CHANNELS 3 Zrotation Yrotation Xrotation
			JOINT LeftKnee
			{
				OFFSET 2.43790 -6.69809 0.00000
				CHANNELS 3 Zrotation Yrotation Xrotation
				JOINT LeftAnkle
				{
					OFFSET 2.59288 -7.12389 0.00000
					CHANNELS 3 Zrotation Yrotation Xrotation
					JOINT LeftToe
					{
						OFFSET 0.14552 -0.39981 2.13160
						CHANNELS 3 Zrotation Yrotation Xrotation
						End Site
						{
							OFFSET 0.00000 -0.00000 1.09427
						}
					}
				}
			}
		}
	}
	JOINT RHipJoint
	{
		OFFSET 0 0 0
		CHANNELS 3 Zrotation Yrotation Xrotation
		JOINT RightHip
		{
			OFFSET -1.77229 -1.58346 0.87084
			CHANNELS 3 Zrotation Yrotation Xrotation
			JOINT RightKnee
			{
				OFFSET -2.50703 -6.88801 0.00000
				CHANNELS 3 Zrotation Yrotation Xrotation
				JOINT RightAnkle
				{
					OFFSET -2.61620 -7.18796 0.00000
					CHANNELS 3 Zrotation Yrotation Xrotation
					JOINT RightToe
					{
						OFFSET -0.15190 -0.41735 2.15974
						CHANNELS 3 Zrotation Yrotation Xrotation
						End Site
						{
							OFFSET -0.00000 -0.00000 1.10919
						}
					}
				}
			}
		}
	}
	JOINT lowerback
	{
		OFFSET 0 0 0
		CHANNELS 3 Zrotation Yrotation Xrotation
		JOINT Chest
		{
			OFFSET -0.03602 2.12423 -0.30249
			CHANNELS 3 Zrotation Yrotation Xrotation
			JOINT Chest2
			{
				OFFSET 0.02717 2.10043 0.12912
				CHANNELS 3 Zrotation Yrotation Xrotation
				JOINT lowerneck
				{
					OFFSET 0 0 0
					CHANNELS 3 Zrotation Yrotation Xrotation
					JOINT Neck
					{
						OFFSET -0.06371 1.88656 0.11602
						CHANNELS 3 Zrotation Yrotation Xrotation
						JOINT Head
						{
							OFFSET 0.08208 1.87759 -0.11505
							CHANNELS 3 Zrotation Yrotation Xrotation
							End Site
							{
								OFFSET 0.03382 1.93090 -0.05483
							}
						}
					}
				}
				JOINT LeftCollar
				{
					OFFSET 0 0 0
					CHANNELS 3 Zrotation Yrotation Xrotation
					JOINT LeftShoulder
					{
						OFFSET 3.30903 1.40357 0.20156
CHANNELS 3 Zrotation Xrotation Yrotation
						JOINT LeftElbow
						{
OFFSET 0 -5.433010 0.000000
CHANNELS 3 Zrotation Xrotation Yrotation
							JOINT LeftWrist
							{
OFFSET 0 -3.159360 0.000000
CHANNELS 3 Zrotation Xrotation Yrotation
								JOINT lhand
								{
									OFFSET 0 0 0
CHANNELS 3 Zrotation Xrotation Yrotation
									JOINT LFingers
									{
OFFSET 0 -0.712830 0.000000
CHANNELS 3 Zrotation Xrotation Yrotation
										End Site
										{
OFFSET 0 -0.574700 0.000000
										}
									}
								}
								JOINT LThumb
								{
OFFSET 0 0.000000 0.000000
CHANNELS 3 Zrotation Xrotation Yrotation
									End Site
									{
OFFSET 0 -0.583470 0.583470
									}
								}
							}
						}
					}
				}
				JOINT RightCollar
				{
					OFFSET 0 0 0
					CHANNELS 3 Zrotation Yrotation Xrotation
					JOINT RightShoulder
					{
						OFFSET -3.12947 1.60037 -0.00464
CHANNELS 3 Zrotation Xrotation Yrotation
						JOINT RightElbow
						{
OFFSET 0 -5.341940 0.000000
CHANNELS 3 Zrotation Xrotation Yrotation
							JOINT RightWrist
							{
OFFSET 0 -3.193510 0.000000
CHANNELS 3 Zrotation Xrotation Yrotation
								JOINT rhand
								{
									OFFSET 0 0 0
CHANNELS 3 Zrotation Xrotation Yrotation
									JOINT RFingers
									{
OFFSET 0 -0.743860 0.000000
CHANNELS 3 Zrotation Xrotation Yrotation
										End Site
										{
OFFSET 0 -0.599720 0.000000
										}
									}
								}
								JOINT RThumb
								{
OFFSET 0 0.000000 0.000000
CHANNELS 3 Zrotation Xrotation Yrotation
									End Site
									{
OFFSET 0 -0.608880 0.608880
									}
								}
							}
						}
					}
				}
			}
		}
	}
}
MOTION
Frames: 5
Frame Time: 0.008333333333333333
-3.218000 16.537400 -22.685600 -3.822600 1.588400 3.926500 0.000000 0.000000 0.000000 -8.674800 -7.905000 -17.581900 5.542000 13.969300 43.114500 1.730800 1.966600 -25.635200 0.205000 -2.915000 -8.042100 0.000000 0.000000 0.000000 16.012000 10.407600 -17.668900 -5.723500 -14.155000 43.861800 -1.392600 -3.102900 -23.599100 -0.815300 5.761800 -16.094800 -1.499900 1.467700 6.850000 1.934600 1.949700 -3.075700 2.620800 1.079700 -7.194400 -6.526400 -4.005500 -4.442300 5.487200 -5.490400 12.018600 2.456100 -2.686700 4.657600 0.000000 0.000000 0.000000 2.351300 -3.208500 -17.044700 12.670600 -20.802700 2.335000 31.384300 34.825000 -20.073600 0.000000 0.000000 0.000000 -7.125000 0.000000 0.000000 3.095100 53.127100 -0.619300 0.000000 0.000000 0.000000 -10.591800 6.431400 22.366300 -18.705700 -29.051300 -4.887100 -21.647600 23.265700 39.572800 0.000000 0.000000 0.000000 7.125000 0.000000 -0.000000 21.025200 70.608900 -13.038300
-3.218804 16.529512 -22.693983 -3.957525 1.662093 3.900155 0.000000 0.000000 0.000000 -8.496262 -7.934924 -17.759290 5.607910 14.037230 43.386942 1.745359 1.877230 -25.702781 0.207208 -2.930955 -8.086524 0.000000 0.000000 0.000000 16.153769 10.352921 -17.671522 -5.722396 -14.153796 43.857049 -1.392457 -3.135307 -23.613509 -0.822667 5.787006 -16.167580 -1.383455 1.375390 6.954894 1.955063 1.839536 -3.166008 2.589000 1.022766 -7.341438 -6.708358 -4.079743 -4.602289 5.424485 -5.619212 13.682934 2.449816 -2.757534 5.208286 0.000000 0.000000 0.000000 2.294585 -3.184668 -16.786756 12.584964 -20.676040 2.304697 31.245326 34.825494 -19.812379 0.000000 0.000000 0.000000 -7.125000 0.000000 0.000000 2.987566 52.805362 -0.574172 0.000000 0.000000 0.000000 -10.524069 6.445774 22.462406 -18.556724 -28.864194 -4.814983 -21.497961 23.093530 39.635869 0.000000 0.000000 0.000000 7.125000 0.000000 0.000000 21.309380 70.615832 -13.222946
-3.219475 16.520950 -22.697576 -3.942885 1.528458 3.778822 0.000000 0.000000 0.000000 -8.534758 -7.860871 -17.665953 5.631253 14.061236 43.483204 1.751077 1.962987 -25.778281 0.211282 -2.959356 -8.165646 0.000000 0.000000 0.000000 16.135823 10.415524 -17.645367 -5.767413 -14.199113 44.040860 -1.406610 -3.033790 -23.676371 -0.804750 5.725382 -15.989712 -1.480996 1.409333 7.020352 1.934841 1.872215 -3.062333 2.617581 1.041133 -7.273248 -6.801944 -4.155150 -4.536293 5.329945 -5.721691 14.179061 2.428576 -2.818810 5.357629 0.000000 0.000000 0.000000 2.169872 -3.327244 -16.952682 12.632694 -20.746683 2.321537 30.987824 34.311366 -19.503013 0.000000 0.000000 0.000000 -7.125000 0.000000 0.000000 2.763185 52.406591 -0.504022 0.000000 0.000000 0.000000 -10.464278 6.416529 22.584347 -18.693436 -29.035906 -4.881114 -21.347511 22.964772 39.688392 0.000000 0.000000 0.000000 7.125000 0.000000 0.000000 21.578497 70.612935 -13.393698
-3.217150 16.509498 -22.701724 -3.912224 1.436940 3.681502 0.000000 0.000000 0.000000 -8.584629 -7.800235 -17.662355 5.678121 14.108983 43.675758 1.760641 1.999140 -25.861411 0.214987 -2.984771 -8.236353 0.000000 0.000000 0.000000 16.084321 10.439534 -17.701384 -5.828181 -14.259718 44.288073 -1.417625 -3.018877 -23.755221 -0.816304 5.765177 -16.104529 -1.567638 1.393927 7.151107 1.904782 1.839327 -3.016177 2.637157 1.027876 -7.299455 -6.928565 -4.153315 -4.284661 5.312427 -5.719061 14.155282 2.449129 -2.829231 5.310555 0.000000 0.000000 0.000000 2.093644 -3.393262 -16.977025 12.650105 -20.772388 2.327710 31.229832 34.428327 -19.566218 0.000000 0.000000 0.000000 -7.125000 0.000000 0.000000 3.007675 52.525303 -0.557462 0.000000 0.000000 0.000000 -10.443863 6.265492 22.734413 -18.653519 -28.985858 -4.861816 -21.114113 22.759458 39.726202 0.000000 0.000000 0.000000 7.125000 0.000000 0.000000 21.928347 70.569409 -13.596598
-3.214900 16.493615 -22.706668 -4.004062 1.443535 3.584045 0.000000 0.000000 0.000000 -8.475090 -7.762207 -17.782496 5.763041 14.194741 44.023196 1.778188 1.988873 -25.981659 0.226897 -3.065950 -8.462354 0.000000 0.000000 0.000000 16.180426 10.391151 -17.710060 -5.864824 -14.296024 44.436647 -1.407387 -3.210508 -23.767107 -0.882771 5.989476 -16.754015 -1.496690 1.341988 7.342830 1.924175 1.776172 -2.949144 2.623260 0.993469 -7.333037 -7.107108 -4.131797 -4.235525 5.315611 -5.674950 14.117751 2.483243 -2.817583 5.293309 0.000000 0.000000 0.000000 1.998574 -3.596911 -16.546616 12.555435 -20.632327 2.294245 31.263851 34.833264 -19.795788 0.000000 0.000000 0.000000 -7.125000 0.000000 0.000000 3.009590 52.790351 -0.577515 0.000000 0.000000 0.000000 -10.479382 6.148633 22.834842 -18.653589 -28.986008 -4.861853 -21.170761 22.763541 39.828159 0.000000 0.000000 0.000000 7.125000 0.000000 0.000000 22.014701 70.678739 -13.704487
